<svg xmlns="http://www.w3.org/2000/svg" width="96" height="96" viewBox="0 0 96 96">
  <g id="Symbole_17_1" data-name="Symbole 17 – 1" transform="translate(16577 -12800)">
    <circle id="Ellipse_494" data-name="Ellipse 494" cx="48" cy="48" r="48" transform="translate(-16577 12800)" fill="#4f657f"/>
    <g id="debt" transform="translate(-16565 12819.72)">
      <g id="Groupe_321" data-name="Groupe 321" transform="translate(14.913 49.379)">
        <g id="Groupe_320" data-name="Groupe 320">
          <path id="Tracé_2040" data-name="Tracé 2040" d="M64,400v2.963H81.776V400Z" transform="translate(-64 -400)" fill="#efefef"/>
        </g>
      </g>
      <g id="SVGCleanerId_0" transform="translate(19.851 21.727)">
        <g id="Groupe_322" data-name="Groupe 322">
          <path id="Tracé_2041" data-name="Tracé 2041" d="M111.9,176a7.9,7.9,0,1,0,7.9,7.9A7.9,7.9,0,0,0,111.9,176Zm2.963,4.938H111.9a.988.988,0,1,0,0,1.975,2.956,2.956,0,0,1,.988,5.744v1.169h-1.975v-.988h-1.975v-1.975H111.9a.988.988,0,1,0,0-1.975,2.956,2.956,0,0,1-.988-5.744v-1.169h1.975v.988h1.975Z" transform="translate(-104 -176)" fill="#efefef"/>
        </g>
      </g>
      <g id="Groupe_324" data-name="Groupe 324" transform="translate(14.913 39.503)">
        <g id="Groupe_323" data-name="Groupe 323">
          <path id="Tracé_2042" data-name="Tracé 2042" d="M64,320v2.963H81.776V320Z" transform="translate(-64 -320)" fill="#efefef"/>
        </g>
      </g>
      <g id="Groupe_326" data-name="Groupe 326" transform="translate(41.578 49.379)">
        <g id="Groupe_325" data-name="Groupe 325">
          <path id="Tracé_2043" data-name="Tracé 2043" d="M280,400v6.913a.988.988,0,0,0,.988.988h8.888V400Zm7.731,5.466-1.4,1.4-1.4-1.4-1.4,1.4-1.4-1.4,1.4-1.4-1.4-1.4,1.4-1.4,1.4,1.4,1.4-1.4,1.4,1.4-1.4,1.4Z" transform="translate(-280 -400)" fill="#efefef"/>
        </g>
      </g>
      <g id="SVGCleanerId_1" transform="translate(11.95 54.317)">
        <g id="Groupe_327" data-name="Groupe 327">
          <rect id="Rectangle_958" data-name="Rectangle 958" width="17.777" height="2.963" fill="#efefef"/>
        </g>
      </g>
      <g id="Groupe_329" data-name="Groupe 329" transform="translate(11.95 44.441)">
        <g id="Groupe_328" data-name="Groupe 328">
          <path id="Tracé_2044" data-name="Tracé 2044" d="M40,360v2.963H57.777V360Z" transform="translate(-40 -360)" fill="#efefef"/>
        </g>
      </g>
      <g id="Groupe_331" data-name="Groupe 331" transform="translate(9.396 3.372)">
        <g id="Groupe_330" data-name="Groupe 330">
          <path id="Tracé_2045" data-name="Tracé 2045" d="M19.312,33.816h6.5v-6.5Z" transform="translate(-19.312 -27.312)" fill="#efefef"/>
        </g>
      </g>
      <g id="Groupe_333" data-name="Groupe 333" transform="translate(41.578 39.503)">
        <g id="Groupe_332" data-name="Groupe 332">
          <path id="Tracé_2046" data-name="Tracé 2046" d="M280,320v7.9h9.876V320Zm7.9,4.938h-1.975v1.975H283.95v-1.975h-1.975v-1.975h1.975v-1.975h1.975v1.975H287.9Z" transform="translate(-280 -320)" fill="#efefef"/>
        </g>
      </g>
      <g id="Groupe_335" data-name="Groupe 335" transform="translate(53.429 49.379)">
        <g id="Groupe_334" data-name="Groupe 334">
          <path id="Tracé_2047" data-name="Tracé 2047" d="M376,400v7.9h8.888a.988.988,0,0,0,.988-.988V400Zm3.95,1.481h1.975v.988H379.95Zm1.975,4.938H379.95v-.988h1.975Zm1.975-1.481h-5.926v-1.975H383.9Z" transform="translate(-376 -400)" fill="#efefef"/>
        </g>
      </g>
      <g id="Groupe_337" data-name="Groupe 337" transform="translate(41.578 27.652)">
        <g id="Groupe_336" data-name="Groupe 336">
          <path id="Tracé_2048" data-name="Tracé 2048" d="M300.739,224H280.988a.988.988,0,0,0-.988.988v8.888h21.727v-8.888A.988.988,0,0,0,300.739,224Zm-.988,6.913a.988.988,0,0,1-.988.988h-15.8a.988.988,0,0,1-.988-.988v-3.95a.988.988,0,0,1,.988-.988h15.8a.988.988,0,0,1,.988.988Z" transform="translate(-280 -224)" fill="#efefef"/>
        </g>
      </g>
      <g id="Groupe_339" data-name="Groupe 339" transform="translate(45.528 31.603)">
        <g id="Groupe_338" data-name="Groupe 338">
          <rect id="Rectangle_959" data-name="Rectangle 959" width="13.826" height="1.975" fill="#efefef"/>
        </g>
      </g>
      <g id="Groupe_341" data-name="Groupe 341" transform="translate(53.429 39.503)">
        <g id="Groupe_340" data-name="Groupe 340">
          <path id="Tracé_2049" data-name="Tracé 2049" d="M376,320v7.9h9.876V320Zm7.9,4.938h-5.926v-1.975H383.9Z" transform="translate(-376 -320)" fill="#efefef"/>
        </g>
      </g>
      <g id="Groupe_343" data-name="Groupe 343" transform="translate(14.913 39.503)">
        <g id="Groupe_342" data-name="Groupe 342">
          <path id="Tracé_2050" data-name="Tracé 2050" d="M64,320v2.963H81.776V320Z" transform="translate(-64 -320)" fill="#efefef"/>
        </g>
      </g>
      <g id="Groupe_345" data-name="Groupe 345" transform="translate(9.396 3.372)">
        <g id="Groupe_344" data-name="Groupe 344">
          <path id="Tracé_2051" data-name="Tracé 2051" d="M19.312,33.816h6.5v-6.5Z" transform="translate(-19.312 -27.312)" fill="#efefef"/>
        </g>
      </g>
      <g id="Groupe_347" data-name="Groupe 347" transform="translate(11.95 44.441)">
        <g id="Groupe_346" data-name="Groupe 346">
          <path id="Tracé_2052" data-name="Tracé 2052" d="M40,360v2.963H57.777V360Z" transform="translate(-40 -360)" fill="#efefef"/>
        </g>
      </g>
      <g id="Groupe_349" data-name="Groupe 349" transform="translate(11.95 54.317)">
        <g id="Groupe_348" data-name="Groupe 348">
          <rect id="Rectangle_960" data-name="Rectangle 960" width="17.777" height="2.963" fill="#efefef"/>
        </g>
      </g>
      <g id="Groupe_351" data-name="Groupe 351" transform="translate(14.913 49.379)">
        <g id="Groupe_350" data-name="Groupe 350">
          <path id="Tracé_2053" data-name="Tracé 2053" d="M64,400v2.963H81.776V400Z" transform="translate(-64 -400)" fill="#efefef"/>
        </g>
      </g>
      <g id="Groupe_353" data-name="Groupe 353" transform="translate(19.851 21.727)">
        <g id="Groupe_352" data-name="Groupe 352">
          <path id="Tracé_2054" data-name="Tracé 2054" d="M111.9,176a7.9,7.9,0,1,0,7.9,7.9A7.9,7.9,0,0,0,111.9,176Zm2.963,4.938H111.9a.988.988,0,1,0,0,1.975,2.956,2.956,0,0,1,.988,5.744v1.169h-1.975v-.988h-1.975v-1.975H111.9a.988.988,0,1,0,0-1.975,2.956,2.956,0,0,1-.988-5.744v-1.169h1.975v.988h1.975Z" transform="translate(-104 -176)" fill="#efefef"/>
        </g>
      </g>
      <g id="SVGCleanerId_2" transform="translate(8 1.975)">
        <g id="Groupe_354" data-name="Groupe 354">
          <path id="Tracé_2055" data-name="Tracé 2055" d="M17.876,16v7.9A1.975,1.975,0,0,1,15.9,25.876H8V71.3H9.975v-3.95a.988.988,0,0,1,.988-.988h1.975V63.4H10.963a.988.988,0,0,1-.988-.988V57.479a.988.988,0,0,1,.988-.988h1.975v-3.95a.988.988,0,0,1,.988-.988h7.926a9.876,9.876,0,1,1,11.8,0h.026a.988.988,0,0,1,.988.988v4.938a.988.988,0,0,1-.988.988H31.7v2.963h1.975a.988.988,0,0,1,.988.988v4.938a.988.988,0,0,1-.988.988H31.7V71.3h7.9V42.665A2.963,2.963,0,0,1,42.565,39.7H47.5V16Zm2.963,5.926H37.628V23.9H20.839Zm.988,11.851H9.975V31.8H21.826Zm21.727,0H34.665V31.8h8.888Zm0-3.95H9.975V27.851H43.553Z" transform="translate(-8 -16)" fill="#efefef"/>
        </g>
      </g>
      <g id="Groupe_356" data-name="Groupe 356" transform="translate(8 1.975)">
        <g id="Groupe_355" data-name="Groupe 355">
          <path id="Tracé_2056" data-name="Tracé 2056" d="M17.876,16v7.9A1.975,1.975,0,0,1,15.9,25.876H8V71.3H9.975v-3.95a.988.988,0,0,1,.988-.988h1.975V63.4H10.963a.988.988,0,0,1-.988-.988V57.479a.988.988,0,0,1,.988-.988h1.975v-3.95a.988.988,0,0,1,.988-.988h7.926a9.876,9.876,0,1,1,11.8,0h.026a.988.988,0,0,1,.988.988v4.938a.988.988,0,0,1-.988.988H31.7v2.963h1.975a.988.988,0,0,1,.988.988v4.938a.988.988,0,0,1-.988.988H31.7V71.3h7.9V42.665A2.963,2.963,0,0,1,42.565,39.7H47.5V16Zm2.963,5.926H37.628V23.9H20.839Zm.988,11.851H9.975V31.8H21.826Zm21.727,0H34.665V31.8h8.888Zm0-3.95H9.975V27.851H43.553Z" transform="translate(-8 -16)" fill="#efefef"/>
        </g>
      </g>
      <g id="Groupe_358" data-name="Groupe 358" transform="translate(49.479)">
        <g id="Groupe_357" data-name="Groupe 357">
          <path id="Tracé_2057" data-name="Tracé 2057" d="M355.851,4.938h-1.975a.988.988,0,0,0-.988-.988H351.9V.988A.988.988,0,0,0,350.913,0h-3.95a.988.988,0,0,0-.988.988V3.95h-.988a.988.988,0,0,0-.988.988V23.7h9.876V6.913h1.975V19.752h1.975V6.913A1.975,1.975,0,0,0,355.851,4.938Z" transform="translate(-344)" fill="#efefef"/>
        </g>
      </g>
    </g>
    <g id="Ellipse_495" data-name="Ellipse 495" transform="translate(-16577 12800)" fill="none" stroke="#4f657f" stroke-width="10">
      <circle cx="48" cy="48" r="48" stroke="none"/>
      <circle cx="48" cy="48" r="43" fill="none"/>
    </g>
  </g>
</svg>
